<svg id="Layer_1" data-name="Layer 1" xmlns="http://www.w3.org/2000/svg" viewBox="0 0 128 128"><defs><style>.cls-1{fill:#737373;}</style></defs><path class="cls-1" d="M1066.38,413.52h-80a24,24,0,0,0-24,24v80a24,24,0,0,0,24,24h80a24,24,0,0,0,24-24v-80A24,24,0,0,0,1066.38,413.52Zm-3.18,35.88a7.24,7.24,0,0,1-5.29,2.4,20.81,20.81,0,0,1-3.5-.44,69.18,69.18,0,0,0-13.75-1.56c-4.2,0-7.25.64-9.12,1.91a7.41,7.41,0,0,0-3.38,4.72l-1.06,4.87h19.75q4.25,0,5.78,1.35a4.67,4.67,0,0,1,1.53,3.71,7.58,7.58,0,0,1-3.62,6.38c-1.29.92-3.44,1.37-6.44,1.37h-19.75l-6.56,31.13H1036q4.3,0,5.81,1.31a4.73,4.73,0,0,1,1.5,3.75,7.61,7.61,0,0,1-3.69,6.44q-1.93,1.31-6.31,1.31H994.54q-4.24,0-5.78-1.34a4.7,4.7,0,0,1-1.53-3.72,7.49,7.49,0,0,1,3.62-6.38q2-1.37,6.44-1.37H1005l6.56-31.13h-6.13c-2.83,0-4.77-.44-5.81-1.34a4.65,4.65,0,0,1-1.56-3.72,7.58,7.58,0,0,1,3.56-6.31q2-1.44,6.5-1.44h6.19l1.06-4.87a22.53,22.53,0,0,1,9.22-14Q1032,437,1043.91,437a91.47,91.47,0,0,1,11.38.87q6.75.88,8.5,2.32a4.54,4.54,0,0,1,1.75,3.68A7.73,7.73,0,0,1,1063.2,449.4Z" transform="translate(-962.38 -413.52)"/></svg>